<svg width="120" height="120" viewBox="0 0 120 120" fill="none" xmlns="http://www.w3.org/2000/svg">
<g clip-path="url(#clip0_30_36)">
<circle cx="60" cy="60" r="60" fill="#E47979"/>
<path d="M59.439 82.484H49.572L44.949 77.585C41.039 81.495 36.163 83.45 30.321 83.45C25.675 83.45 21.811 82.3 18.729 80C15.279 77.378 13.554 73.606 13.554 68.684C13.554 62.106 17.004 57.184 23.904 53.918C20.362 49.686 18.591 45.822 18.591 42.326C18.591 38.508 20.155 35.518 23.283 33.356C25.997 31.47 29.194 30.527 32.874 30.527C36.232 30.527 39.107 31.401 41.499 33.149C44.167 35.219 45.501 38.094 45.501 41.774C45.501 45.178 44.443 48.03 42.327 50.33C40.855 51.986 38.394 53.734 34.944 55.574L44.949 66.89C46.835 63.486 47.778 59.3 47.778 54.332H54.747C54.701 57.368 54.218 60.519 53.298 63.785C52.378 67.051 51.205 69.719 49.779 71.789L59.439 82.484ZM28.251 58.886C23.467 61.186 21.075 64.314 21.075 68.27C21.075 70.892 22.018 72.962 23.904 74.48C25.698 75.998 27.952 76.757 30.666 76.757C34.484 76.757 37.773 75.377 40.533 72.617L28.251 58.886ZM30.528 50.813C33.012 49.617 34.668 48.628 35.496 47.846C37.106 46.374 37.911 44.649 37.911 42.671C37.911 38.991 36.14 37.151 32.598 37.151C30.758 37.151 29.217 37.657 27.975 38.669C26.779 39.635 26.181 40.969 26.181 42.671C26.181 45.017 27.63 47.731 30.528 50.813ZM110.987 82.484H101.12L96.4969 77.585C92.5869 81.495 87.7109 83.45 81.8689 83.45C77.2229 83.45 73.3589 82.3 70.2769 80C66.8269 77.378 65.1019 73.606 65.1019 68.684C65.1019 62.106 68.5519 57.184 75.4519 53.918C71.9099 49.686 70.1389 45.822 70.1389 42.326C70.1389 38.508 71.7029 35.518 74.8309 33.356C77.5449 31.47 80.7419 30.527 84.4219 30.527C87.7799 30.527 90.6549 31.401 93.0469 33.149C95.7149 35.219 97.0489 38.094 97.0489 41.774C97.0489 45.178 95.9909 48.03 93.8749 50.33C92.4029 51.986 89.9419 53.734 86.4919 55.574L96.4969 66.89C98.3829 63.486 99.3259 59.3 99.3259 54.332H106.295C106.249 57.368 105.766 60.519 104.846 63.785C103.926 67.051 102.753 69.719 101.327 71.789L110.987 82.484ZM79.7989 58.886C75.0149 61.186 72.6229 64.314 72.6229 68.27C72.6229 70.892 73.5659 72.962 75.4519 74.48C77.2459 75.998 79.4999 76.757 82.2139 76.757C86.0319 76.757 89.3209 75.377 92.0809 72.617L79.7989 58.886ZM82.0759 50.813C84.5599 49.617 86.2159 48.628 87.0439 47.846C88.6539 46.374 89.4589 44.649 89.4589 42.671C89.4589 38.991 87.6879 37.151 84.1459 37.151C82.3059 37.151 80.7649 37.657 79.5229 38.669C78.3269 39.635 77.7289 40.969 77.7289 42.671C77.7289 45.017 79.1779 47.731 82.0759 50.813Z" fill="white"/>
</g>
<defs>
<clipPath id="clip0_30_36">
<rect width="120" height="120" fill="white"/>
</clipPath>
</defs>
</svg>
